<svg width="362" height="103" viewBox="0 0 362 103" fill="none" xmlns="http://www.w3.org/2000/svg">
  <path d="M47.5804 19L63.8593 47.1958H31.3015L47.5804 19Z" fill="#121212"/>
  <path d="M1.68888 102L10.5781 85.7902H84.5827L93.472 102H1.68888Z" stroke="black" stroke-width="2"/>
  <path d="M18.425 73.8916L27.3109 58.0944H67.8501L76.736 73.8916H18.425Z" stroke="black" stroke-width="3"/>
  <path d="M114.594 75H124.156V56.8125H124.312C126 60.2812 129.438 62.4688 133.875 62.4688C141.562 62.4688 147.375 56.4688 147.375 45.4688C147.375 34.1562 141.312 28.5 133.969 28.5C129.438 28.5 126.062 30.7812 124.312 34.375H124.094V29H114.594V75ZM123.812 45.4688C123.812 39.6562 126.531 36.0625 130.781 36.0625C134.938 36.0625 137.625 39.4375 137.625 45.4688C137.625 51.5 134.938 54.875 130.781 54.875C126.531 54.875 123.812 51.2188 123.812 45.4688ZM151.312 62H160.906V29H151.312V62ZM156.125 24.6875C159.062 24.6875 161.469 22.375 161.5 19.5312C161.469 16.6875 159.062 14.375 156.125 14.375C153.125 14.375 150.719 16.6875 150.75 19.5312C150.719 22.375 153.125 24.6875 156.125 24.6875ZM166.062 62H175.625V43.9375C175.625 39.3438 178.531 36.7812 182.188 36.8125C183.562 36.7812 185.312 37.0312 186.219 37.3438V28.8438C185.469 28.6562 184.469 28.5 183.438 28.5C179.594 28.5 176.844 30.7188 175.562 34.9688H175.312V29H166.062V62ZM198.844 62.5C203.75 62.5 206.969 60.6562 208.781 57.3438H208.906V62H218V39.375C218 33.0938 212.469 28.5 203.469 28.5C194.156 28.5 188.969 33.4062 188.594 39.5625H197.688C197.938 37.0312 200.156 35.4688 203.344 35.4688C206.5 35.4688 208.5 36.9688 208.5 39.3438V39.5C208.5 41.5938 206.375 41.9062 200.375 42.4688C193.438 43.0625 187.5 45.2812 187.5 52.7188C187.5 59.3125 192.25 62.5 198.844 62.5ZM201.594 55.9688C198.625 55.9688 196.688 54.6562 196.688 52.4062C196.688 49.9062 199.062 48.6562 202.125 48.2188C205.031 47.8125 207.5 47.3125 208.562 46.75V50C208.562 53.4688 205.812 55.9688 201.594 55.9688ZM223.125 62H232.719V42.75C232.719 38.6562 235.156 36.375 238.344 36.375C241.5 36.375 243.625 38.5312 243.625 41.9062V62H252.844V42.375C252.844 38.8125 254.938 36.375 258.375 36.375C261.469 36.375 263.75 38.2812 263.75 42.125V62H273.375V40.25C273.375 32.75 268.719 28.5 262.312 28.5C257.188 28.5 253.219 31.25 251.906 35.0938H251.781C250.812 31.1875 247.094 28.5 242.312 28.5C237.656 28.5 233.938 31.0938 232.5 35.0312H232.375V29H223.125V62ZM278.5 62H288.094V29H278.5V62ZM283.312 24.6875C286.25 24.6875 288.656 22.375 288.688 19.5312C288.656 16.6875 286.25 14.375 283.312 14.375C280.312 14.375 277.906 16.6875 277.938 19.5312C277.906 22.375 280.312 24.6875 283.312 24.6875ZM305.438 62.5C309.969 62.5 313.375 60.3125 315.125 56.7812H315.25V62H324.781V16H315.188V34.3125H315.062C313.438 30.8125 310 28.5 305.406 28.5C298.156 28.5 292.125 34.1562 292.094 45.4688C292.125 56.4688 297.844 62.5 305.438 62.5ZM308.594 54.875C304.469 54.875 301.75 51.5625 301.75 45.4688C301.75 39.4062 304.469 36.0938 308.594 36.0938C312.844 36.0938 315.562 39.6562 315.5 45.4688C315.562 51.2188 312.875 54.875 308.594 54.875ZM340.281 62.5C345.188 62.5 348.406 60.6562 350.219 57.3438H350.344V62H359.438V39.375C359.438 33.0938 353.906 28.5 344.906 28.5C335.594 28.5 330.406 33.4062 330.031 39.5625H339.125C339.375 37.0312 341.594 35.4688 344.781 35.4688C347.938 35.4688 349.938 36.9688 349.938 39.3438V39.5C349.938 41.5938 347.812 41.9062 341.812 42.4688C334.875 43.0625 328.938 45.2812 328.938 52.7188C328.938 59.3125 333.688 62.5 340.281 62.5ZM343.031 55.9688C340.062 55.9688 338.125 54.6562 338.125 52.4062C338.125 49.9062 340.5 48.6562 343.562 48.2188C346.469 47.8125 348.938 47.3125 350 46.75V50C350 53.4688 347.25 55.9688 343.031 55.9688Z" fill="#121212"/>
  <path d="M114.438 99H116.413V94.3977H119.098C122.134 94.3977 123.636 92.5632 123.636 90.147C123.636 87.7372 122.147 85.9091 119.104 85.9091H114.438V99ZM116.413 92.723V87.603H118.893C120.849 87.603 121.648 88.6641 121.648 90.147C121.648 91.63 120.849 92.723 118.919 92.723H116.413ZM129.457 99.1982C131.598 99.1982 133.113 98.1435 133.548 96.5455L131.739 96.2195C131.394 97.1463 130.563 97.6193 129.476 97.6193C127.84 97.6193 126.74 96.5582 126.689 94.6662H133.669V93.9886C133.669 90.4411 131.547 89.054 129.323 89.054C126.587 89.054 124.784 91.1378 124.784 94.1548C124.784 97.2038 126.561 99.1982 129.457 99.1982ZM126.696 93.2344C126.772 91.8409 127.782 90.6328 129.336 90.6328C130.818 90.6328 131.79 91.7322 131.796 93.2344H126.696ZM135.34 99H137.251V93.0043C137.251 91.7195 138.242 90.7926 139.597 90.7926C139.993 90.7926 140.441 90.8629 140.594 90.9077V89.0795C140.402 89.054 140.025 89.0348 139.782 89.0348C138.632 89.0348 137.647 89.6868 137.289 90.7415H137.187V89.1818H135.34V99ZM141.798 99H143.709V89.1818H141.798V99ZM142.763 87.6669C143.422 87.6669 143.971 87.1555 143.971 86.5291C143.971 85.9027 143.422 85.3849 142.763 85.3849C142.099 85.3849 141.555 85.9027 141.555 86.5291C141.555 87.1555 142.099 87.6669 142.763 87.6669ZM145.831 99H147.742V95.5163L148.694 94.5639L152.031 99H154.377L150.132 93.3942L154.108 89.1818H151.82L147.908 93.3366H147.742V85.9091H145.831V99ZM162.757 91.5788C162.361 90.0511 161.166 89.054 159.044 89.054C156.825 89.054 155.253 90.2237 155.253 91.9624C155.253 93.3558 156.097 94.2827 157.938 94.6918L159.6 95.0561C160.546 95.267 160.987 95.6889 160.987 96.3026C160.987 97.0632 160.175 97.6577 158.922 97.6577C157.778 97.6577 157.043 97.1655 156.813 96.2003L154.965 96.4815C155.285 98.2202 156.73 99.1982 158.935 99.1982C161.306 99.1982 162.949 97.9389 162.949 96.1619C162.949 94.7749 162.067 93.9183 160.264 93.5028L158.705 93.1449C157.624 92.8892 157.158 92.5249 157.164 91.8601C157.158 91.1058 157.976 90.5689 159.063 90.5689C160.252 90.5689 160.801 91.2273 161.025 91.8857L162.757 91.5788ZM167.458 99.2173C169.081 99.2173 169.995 98.3928 170.36 97.6577H170.436V99H172.303V92.4801C172.303 89.6229 170.053 89.054 168.493 89.054C166.716 89.054 165.08 89.7699 164.441 91.5597L166.237 91.9688C166.518 91.272 167.234 90.6009 168.519 90.6009C169.752 90.6009 170.385 91.2464 170.385 92.3587V92.4034C170.385 93.1001 169.669 93.0874 167.905 93.2919C166.045 93.5092 164.14 93.995 164.14 96.2259C164.14 98.1562 165.591 99.2173 167.458 99.2173ZM167.873 97.6832C166.793 97.6832 166.013 97.1974 166.013 96.2514C166.013 95.2287 166.921 94.8643 168.027 94.7173C168.647 94.6342 170.117 94.468 170.392 94.1932V95.4588C170.392 96.6222 169.465 97.6832 167.873 97.6832ZM178.866 99H186.773V97.2997H180.841V85.9091H178.866V99ZM192.654 99.1982C194.795 99.1982 196.31 98.1435 196.745 96.5455L194.936 96.2195C194.591 97.1463 193.76 97.6193 192.673 97.6193C191.037 97.6193 189.937 96.5582 189.886 94.6662H196.866V93.9886C196.866 90.4411 194.744 89.054 192.52 89.054C189.784 89.054 187.981 91.1378 187.981 94.1548C187.981 97.2038 189.758 99.1982 192.654 99.1982ZM189.892 93.2344C189.969 91.8409 190.979 90.6328 192.532 90.6328C194.015 90.6328 194.987 91.7322 194.993 93.2344H189.892ZM202.653 102.886C205.153 102.886 207.083 101.742 207.083 99.2173V89.1818H205.21V90.7734H205.069C204.731 90.1662 204.053 89.054 202.225 89.054C199.854 89.054 198.108 90.9268 198.108 94.0526C198.108 97.1847 199.892 98.853 202.212 98.853C204.015 98.853 204.711 97.8366 205.057 97.2102H205.178V99.1406C205.178 100.681 204.123 101.346 202.672 101.346C201.081 101.346 200.461 100.547 200.122 99.9844L198.479 100.662C198.997 101.864 200.307 102.886 202.653 102.886ZM202.634 97.2678C200.927 97.2678 200.039 95.9574 200.039 94.027C200.039 92.1413 200.908 90.6776 202.634 90.6776C204.302 90.6776 205.197 92.0391 205.197 94.027C205.197 96.0533 204.283 97.2678 202.634 97.2678ZM212.053 99.2173C213.677 99.2173 214.591 98.3928 214.955 97.6577H215.032V99H216.899V92.4801C216.899 89.6229 214.649 89.054 213.089 89.054C211.312 89.054 209.676 89.7699 209.036 91.5597L210.832 91.9688C211.114 91.272 211.83 90.6009 213.114 90.6009C214.348 90.6009 214.981 91.2464 214.981 92.3587V92.4034C214.981 93.1001 214.265 93.0874 212.501 93.2919C210.641 93.5092 208.736 93.995 208.736 96.2259C208.736 98.1562 210.187 99.2173 212.053 99.2173ZM212.469 97.6832C211.389 97.6832 210.609 97.1974 210.609 96.2514C210.609 95.2287 211.516 94.8643 212.622 94.7173C213.242 94.6342 214.712 94.468 214.987 94.1932V95.4588C214.987 96.6222 214.06 97.6832 212.469 97.6832ZM220.905 85.9091H218.994V99H220.905V85.9091ZM223.027 99H224.938V89.1818H223.027V99ZM223.992 87.6669C224.65 87.6669 225.2 87.1555 225.2 86.5291C225.2 85.9027 224.65 85.3849 223.992 85.3849C223.327 85.3849 222.784 85.9027 222.784 86.5291C222.784 87.1555 223.327 87.6669 223.992 87.6669ZM231.642 89.1818H229.629V86.8295H227.717V89.1818H226.279V90.7159H227.717V96.5135C227.711 98.2969 229.073 99.1598 230.581 99.1278C231.188 99.1214 231.597 99.0064 231.821 98.9233L231.476 97.3445C231.348 97.37 231.112 97.4276 230.805 97.4276C230.185 97.4276 229.629 97.223 229.629 96.1172V90.7159H231.642V89.1818ZM236.164 99.2173C237.787 99.2173 238.701 98.3928 239.066 97.6577H239.142V99H241.009V92.4801C241.009 89.6229 238.759 89.054 237.199 89.054C235.422 89.054 233.786 89.7699 233.146 91.5597L234.943 91.9688C235.224 91.272 235.94 90.6009 237.225 90.6009C238.458 90.6009 239.091 91.2464 239.091 92.3587V92.4034C239.091 93.1001 238.375 93.0874 236.611 93.2919C234.751 93.5092 232.846 93.995 232.846 96.2259C232.846 98.1562 234.297 99.2173 236.164 99.2173ZM236.579 97.6832C235.499 97.6832 234.719 97.1974 234.719 96.2514C234.719 95.2287 235.627 94.8643 236.732 94.7173C237.352 94.6342 238.823 94.468 239.097 94.1932V95.4588C239.097 96.6222 238.171 97.6832 236.579 97.6832ZM250.462 91.5788C250.065 90.0511 248.87 89.054 246.748 89.054C244.53 89.054 242.957 90.2237 242.957 91.9624C242.957 93.3558 243.801 94.2827 245.642 94.6918L247.304 95.0561C248.25 95.267 248.691 95.6889 248.691 96.3026C248.691 97.0632 247.879 97.6577 246.626 97.6577C245.482 97.6577 244.747 97.1655 244.517 96.2003L242.67 96.4815C242.989 98.2202 244.434 99.1982 246.639 99.1982C249.011 99.1982 250.653 97.9389 250.653 96.1619C250.653 94.7749 249.771 93.9183 247.969 93.5028L246.409 93.1449C245.329 92.8892 244.862 92.5249 244.869 91.8601C244.862 91.1058 245.68 90.5689 246.767 90.5689C247.956 90.5689 248.506 91.2273 248.729 91.8857L250.462 91.5788ZM258.747 85.9091H256.772V99H258.747V85.9091ZM262.931 93.1705C262.931 91.6044 263.89 90.7095 265.22 90.7095C266.517 90.7095 267.303 91.5597 267.303 92.9851V99H269.215V92.755C269.215 90.326 267.879 89.054 265.872 89.054C264.395 89.054 263.43 89.7379 262.976 90.7798H262.854V89.1818H261.02V99H262.931V93.1705ZM279.375 89.1818H277.324L274.843 96.7372H274.741L272.255 89.1818H270.203L273.77 99H275.815L279.375 89.1818ZM284.601 99.1982C286.743 99.1982 288.258 98.1435 288.692 96.5455L286.883 96.2195C286.538 97.1463 285.707 97.6193 284.621 97.6193C282.984 97.6193 281.885 96.5582 281.834 94.6662H288.814V93.9886C288.814 90.4411 286.692 89.054 284.467 89.054C281.731 89.054 279.929 91.1378 279.929 94.1548C279.929 97.2038 281.706 99.1982 284.601 99.1982ZM281.84 93.2344C281.917 91.8409 282.927 90.6328 284.48 90.6328C285.963 90.6328 286.935 91.7322 286.941 93.2344H281.84ZM297.842 91.5788C297.445 90.0511 296.25 89.054 294.128 89.054C291.91 89.054 290.337 90.2237 290.337 91.9624C290.337 93.3558 291.181 94.2827 293.022 94.6918L294.684 95.0561C295.63 95.267 296.071 95.6889 296.071 96.3026C296.071 97.0632 295.259 97.6577 294.006 97.6577C292.862 97.6577 292.127 97.1655 291.897 96.2003L290.05 96.4815C290.369 98.2202 291.814 99.1982 294.019 99.1982C296.391 99.1982 298.033 97.9389 298.033 96.1619C298.033 94.7749 297.151 93.9183 295.349 93.5028L293.789 93.1449C292.709 92.8892 292.242 92.5249 292.249 91.8601C292.242 91.1058 293.06 90.5689 294.147 90.5689C295.336 90.5689 295.886 91.2273 296.109 91.8857L297.842 91.5788ZM304.268 89.1818H302.254V86.8295H300.343V89.1818H298.905V90.7159H300.343V96.5135C300.337 98.2969 301.698 99.1598 303.207 99.1278C303.814 99.1214 304.223 99.0064 304.447 98.9233L304.102 97.3445C303.974 97.37 303.737 97.4276 303.431 97.4276C302.811 97.4276 302.254 97.223 302.254 96.1172V90.7159H304.268V89.1818ZM308.789 99.2173C310.413 99.2173 311.327 98.3928 311.691 97.6577H311.768V99H313.634V92.4801C313.634 89.6229 311.384 89.054 309.825 89.054C308.048 89.054 306.411 89.7699 305.772 91.5597L307.568 91.9688C307.85 91.272 308.566 90.6009 309.85 90.6009C311.084 90.6009 311.717 91.2464 311.717 92.3587V92.4034C311.717 93.1001 311.001 93.0874 309.237 93.2919C307.377 93.5092 305.472 93.995 305.472 96.2259C305.472 98.1562 306.923 99.2173 308.789 99.2173ZM309.205 97.6832C308.125 97.6832 307.345 97.1974 307.345 96.2514C307.345 95.2287 308.252 94.8643 309.358 94.7173C309.978 94.6342 311.448 94.468 311.723 94.1932V95.4588C311.723 96.6222 310.796 97.6832 309.205 97.6832ZM323.087 91.5788C322.691 90.0511 321.496 89.054 319.374 89.054C317.156 89.054 315.583 90.2237 315.583 91.9624C315.583 93.3558 316.427 94.2827 318.268 94.6918L319.93 95.0561C320.876 95.267 321.317 95.6889 321.317 96.3026C321.317 97.0632 320.505 97.6577 319.252 97.6577C318.108 97.6577 317.373 97.1655 317.143 96.2003L315.295 96.4815C315.615 98.2202 317.06 99.1982 319.265 99.1982C321.636 99.1982 323.279 97.9389 323.279 96.1619C323.279 94.7749 322.397 93.9183 320.594 93.5028L319.035 93.1449C317.955 92.8892 317.488 92.5249 317.494 91.8601C317.488 91.1058 318.306 90.5689 319.393 90.5689C320.582 90.5689 321.131 91.2273 321.355 91.8857L323.087 91.5788ZM324.931 99H326.842V89.1818H324.931V99ZM325.896 87.6669C326.554 87.6669 327.104 87.1555 327.104 86.5291C327.104 85.9027 326.554 85.3849 325.896 85.3849C325.231 85.3849 324.688 85.9027 324.688 86.5291C324.688 87.1555 325.231 87.6669 325.896 87.6669Z" fill="#6B7280"/>
</svg>
